<svg width="52" height="52" viewBox="0 0 52 52" fill="none" xmlns="http://www.w3.org/2000/svg">
    <path
        d="M28.357 22.0262C33.792 22.0262 38.2139 17.6042 38.2139 12.1692C38.2139 6.73426 33.792 2.31226 28.357 2.31226C22.922 2.31226 18.5 6.71478 18.5 12.1692C18.5 17.6042 22.9025 22.0262 28.357 22.0262Z"
        fill="#8FBF29" />
    <path
        d="M12.1882 49.688C17.818 49.688 22.3763 45.1297 22.3763 39.4999C22.3763 33.8896 17.818 29.3118 12.1882 29.3118C6.55843 29.3118 2.00006 33.8896 2.00006 39.4999C1.98058 45.1102 6.55843 49.688 12.1882 49.688Z"
        fill="#312F86" />
    <path
        d="M34.2786 47.9151C37.1033 47.9151 39.3825 45.6359 39.3825 42.8113C39.3825 39.9867 37.1033 37.7075 34.2786 37.7075C31.454 37.7075 29.1748 39.9867 29.1748 42.8113C29.1748 45.6359 31.454 47.9151 34.2786 47.9151Z"
        fill="#8FBF29" />
    <path
        d="M18.6367 25.4936C22.5716 25.4936 25.7664 22.2989 25.7664 18.3639C25.7664 14.4289 22.5716 11.2341 18.6367 11.2341C14.7016 11.2341 11.5068 14.4289 11.5068 18.3639C11.5068 22.2989 14.7016 25.4936 18.6367 25.4936Z"
        fill="#312F86" />
    <path
        d="M44.2926 35.0194C47.4485 35.0194 50.0003 32.4675 50.0003 29.3117C50.0003 26.1559 47.4485 23.604 44.2926 23.604C41.1369 23.604 38.585 26.1559 38.585 29.3117C38.585 32.4675 41.1369 35.0194 44.2926 35.0194Z"
        fill="#312F86" />
</svg>