<svg width="280" height="62" viewBox="0 0 280 62" fill="none" xmlns="http://www.w3.org/2000/svg">
<path d="M81.6152 0.200928V61.799" stroke="#ffffff" stroke-width="0.68"/>
<path d="M32.2037 24.9542C38.8443 24.9542 44.2472 19.5513 44.2472 12.9107C44.2472 6.27011 38.8443 0.867188 32.2037 0.867188C25.5631 0.867188 20.1602 6.24631 20.1602 12.9107C20.1602 19.5513 25.5393 24.9542 32.2037 24.9542Z" fill="#8FBF29"/>
<path d="M12.4482 58.7522C19.3268 58.7522 24.8963 53.1827 24.8963 46.3041C24.8963 39.4493 19.3268 33.856 12.4482 33.856C5.56961 33.856 7.56813e-05 39.4493 7.56813e-05 46.3041C-0.0237257 53.1589 5.56961 58.7522 12.4482 58.7522Z" fill="#312F86"/>
<path d="M39.4391 56.5862C42.8903 56.5862 45.6751 53.8014 45.6751 50.3502C45.6751 46.899 42.8903 44.1143 39.4391 44.1143C35.9879 44.1143 33.2031 46.899 33.2031 50.3502C33.2031 53.8014 35.9879 56.5862 39.4391 56.5862Z" fill="#8FBF29"/>
<path d="M20.3266 29.1909C25.1344 29.1909 29.0379 25.2875 29.0379 20.4796C29.0379 15.6717 25.1344 11.7683 20.3266 11.7683C15.5187 11.7683 11.6152 15.6717 11.6152 20.4796C11.6152 25.2875 15.5187 29.1909 20.3266 29.1909Z" fill="#312F86"/>
<path d="M51.673 40.8297C55.5289 40.8297 58.6468 37.7117 58.6468 33.8559C58.6468 30.0001 55.5289 26.8821 51.673 26.8821C47.8172 26.8821 44.6992 30.0001 44.6992 33.8559C44.6992 37.7117 47.8172 40.8297 51.673 40.8297Z" fill="#312F86"/>
<path d="M280 43.2813C280 42.6387 279.952 42.0913 279.833 41.639C279.714 41.1868 279.548 40.7822 279.286 40.449C279.024 40.1157 278.691 39.8539 278.286 39.6397C277.881 39.4493 277.358 39.3541 276.763 39.3541C276.215 39.3541 275.692 39.4969 275.192 39.7587C274.692 40.0205 274.192 40.4252 273.716 40.9488V39.9253C273.716 39.8539 273.692 39.8063 273.669 39.7587C273.645 39.7111 273.573 39.6635 273.502 39.6397C273.431 39.6159 273.312 39.5921 273.169 39.5683C273.026 39.5445 272.859 39.5445 272.645 39.5445C272.431 39.5445 272.264 39.5445 272.145 39.5683C272.003 39.5921 271.907 39.6159 271.812 39.6397C271.717 39.6635 271.669 39.7111 271.645 39.7587C271.622 39.8063 271.598 39.8539 271.598 39.9253V48.7319C271.598 48.8033 271.622 48.8509 271.645 48.8985C271.693 48.9461 271.741 48.9937 271.86 49.0175C271.955 49.0413 272.074 49.0651 272.241 49.0889C272.407 49.1127 272.598 49.1127 272.836 49.1127C273.074 49.1127 273.288 49.1127 273.431 49.0889C273.597 49.0651 273.716 49.0413 273.811 49.0175C273.907 48.9937 273.978 48.9461 274.026 48.8985C274.073 48.8509 274.073 48.8033 274.073 48.7319V42.8767C274.43 42.4245 274.763 42.0913 275.073 41.8771C275.382 41.639 275.716 41.52 276.025 41.52C276.287 41.52 276.501 41.5676 276.691 41.6628C276.882 41.758 277.025 41.9009 277.144 42.0675C277.263 42.2341 277.358 42.4483 277.405 42.6863C277.477 42.9243 277.501 43.2575 277.501 43.686V48.7081C277.501 48.7795 277.524 48.8271 277.572 48.8747C277.62 48.9223 277.667 48.9699 277.762 48.9937C277.858 49.0175 277.977 49.0413 278.143 49.0651C278.31 49.0889 278.5 49.0889 278.738 49.0889C278.976 49.0889 279.167 49.0889 279.333 49.0651C279.5 49.0413 279.619 49.0175 279.714 48.9937C279.809 48.9699 279.881 48.9223 279.905 48.8747C279.952 48.8271 279.976 48.7795 279.976 48.7081V43.2813H280ZM266.933 45.5901C266.838 45.9471 266.719 46.2565 266.528 46.5183C266.362 46.7801 266.124 46.9706 265.838 47.1134C265.552 47.2562 265.243 47.3038 264.862 47.3038C264.457 47.3038 264.1 47.2324 263.839 47.0896C263.553 46.9468 263.339 46.7325 263.172 46.4707C263.006 46.2089 262.887 45.8757 262.815 45.5187C262.744 45.1616 262.72 44.757 262.72 44.3286C262.72 43.8526 262.768 43.4479 262.863 43.0671C262.958 42.7101 263.077 42.4007 263.267 42.1389C263.434 41.8771 263.672 41.6866 263.958 41.5438C264.243 41.401 264.553 41.3534 264.934 41.3534C265.338 41.3534 265.695 41.4248 265.957 41.5914C266.243 41.7342 266.457 41.9485 266.623 42.2341C266.79 42.4959 266.909 42.8291 266.98 43.1861C267.052 43.5431 267.076 43.9478 267.076 44.3762C267.052 44.8046 267.004 45.233 266.933 45.5901ZM269.337 42.1627C269.146 41.5438 268.861 41.044 268.504 40.6394C268.123 40.2348 267.647 39.9015 267.076 39.6873C266.504 39.4731 265.814 39.3541 265.029 39.3541C264.219 39.3541 263.505 39.4731 262.91 39.7111C262.315 39.9491 261.815 40.3062 261.411 40.7346C261.006 41.1868 260.721 41.7104 260.506 42.3293C260.316 42.9481 260.197 43.6384 260.197 44.3762C260.197 45.1616 260.292 45.8519 260.483 46.4469C260.673 47.042 260.959 47.5656 261.339 47.9702C261.72 48.3986 262.196 48.7081 262.791 48.9223C263.363 49.1365 264.053 49.2555 264.838 49.2555C265.648 49.2555 266.362 49.1365 266.957 48.8985C267.552 48.6605 268.075 48.3034 268.456 47.8512C268.861 47.399 269.146 46.8753 269.361 46.2565C269.551 45.6377 269.646 44.9474 269.646 44.2096C269.622 43.4479 269.527 42.7577 269.337 42.1627ZM258.102 35.9267C257.912 35.7363 257.531 35.6411 256.984 35.6411C256.413 35.6411 256.032 35.7363 255.841 35.9267C255.651 36.1171 255.532 36.4741 255.532 36.974C255.532 37.45 255.627 37.7832 255.818 37.9736C256.008 38.164 256.389 38.2592 256.96 38.2592C257.507 38.2592 257.888 38.164 258.102 37.9736C258.317 37.7832 258.412 37.45 258.412 36.9502C258.412 36.4503 258.293 36.1171 258.102 35.9267ZM251.771 39.5921V37.6166C251.771 37.5452 251.747 37.4976 251.7 37.4262C251.652 37.3786 251.605 37.331 251.51 37.2834C251.414 37.2358 251.295 37.212 251.129 37.212C250.962 37.1882 250.772 37.1882 250.51 37.1882C250.272 37.1882 250.081 37.1882 249.915 37.212C249.748 37.2358 249.629 37.2596 249.534 37.2834C249.439 37.3072 249.367 37.3548 249.344 37.4262C249.32 37.4738 249.296 37.5452 249.296 37.6166V39.5921H248.249C248.177 39.5921 248.13 39.6159 248.082 39.6397C248.034 39.6635 247.987 39.7349 247.963 39.8063C247.939 39.8777 247.892 39.9967 247.892 40.1157C247.868 40.2586 247.868 40.4014 247.868 40.5918C247.868 40.9488 247.892 41.2106 247.963 41.3772C248.034 41.5438 248.13 41.6152 248.249 41.6152H249.296V46.1375C249.296 46.6849 249.344 47.1372 249.463 47.5418C249.582 47.9464 249.748 48.2558 249.986 48.5176C250.224 48.7795 250.534 48.9699 250.891 49.0889C251.248 49.2079 251.676 49.2793 252.176 49.2793C252.366 49.2793 252.533 49.2793 252.723 49.2555C252.914 49.2317 253.08 49.2079 253.223 49.1603C253.39 49.1127 253.509 49.0889 253.628 49.0413C253.747 48.9937 253.842 48.9223 253.89 48.8509C253.937 48.7795 253.985 48.6843 254.032 48.5176C254.056 48.3748 254.08 48.1606 254.08 47.8512C254.08 47.6608 254.08 47.518 254.056 47.399C254.032 47.28 254.032 47.1848 254.009 47.1134C253.985 47.042 253.961 46.9944 253.937 46.9706C253.89 46.9467 253.866 46.9467 253.818 46.9467C253.771 46.9467 253.723 46.9467 253.652 46.9706C253.604 46.9944 253.533 47.0182 253.437 47.042C253.366 47.0658 253.271 47.0896 253.152 47.1134C253.057 47.1372 252.938 47.1372 252.795 47.1372C252.414 47.1372 252.128 47.0182 251.986 46.7801C251.843 46.5421 251.771 46.1851 251.771 45.7091V41.5676H255.722V48.7081C255.722 48.7795 255.746 48.8271 255.794 48.8747C255.841 48.9223 255.889 48.9699 255.984 48.9937C256.079 49.0175 256.198 49.0413 256.365 49.0651C256.532 49.0889 256.722 49.0889 256.984 49.0889C257.222 49.0889 257.412 49.0889 257.579 49.0651C257.745 49.0413 257.864 49.0175 257.96 48.9937C258.055 48.9699 258.126 48.9223 258.15 48.8747C258.198 48.8271 258.198 48.7795 258.198 48.7081V40.2586C258.198 40.0443 258.15 39.8539 258.031 39.7349C257.936 39.6159 257.722 39.5683 257.46 39.5683H251.771V39.5921ZM244.131 46.4945C243.822 46.8277 243.536 47.0896 243.227 47.28C242.941 47.4704 242.608 47.5418 242.275 47.5418C241.87 47.5418 241.537 47.4466 241.299 47.2324C241.061 47.0182 240.942 46.7325 240.942 46.3755C240.942 46.1613 240.989 45.9709 241.061 45.8043C241.156 45.6377 241.275 45.4949 241.441 45.3759C241.608 45.2568 241.846 45.1616 242.132 45.114C242.417 45.0664 242.751 45.0188 243.155 45.0188H244.107V46.4945H244.131ZM246.559 42.8291C246.559 42.2341 246.487 41.7104 246.345 41.2582C246.202 40.806 245.964 40.449 245.654 40.1872C245.345 39.9015 244.94 39.6873 244.44 39.5683C243.941 39.4255 243.369 39.3779 242.679 39.3779C242.298 39.3779 241.918 39.4017 241.537 39.4731C241.18 39.5445 240.846 39.6159 240.513 39.7111C240.204 39.8063 239.942 39.9253 239.704 40.0205C239.466 40.1395 239.299 40.2348 239.228 40.33C239.133 40.4252 239.061 40.5204 239.038 40.6394C239.014 40.7584 238.99 40.925 238.99 41.1154C238.99 41.2582 238.99 41.401 239.014 41.52C239.038 41.639 239.061 41.758 239.109 41.8294C239.157 41.9009 239.18 41.9723 239.252 42.0199C239.299 42.0675 239.371 42.0913 239.442 42.0913C239.537 42.0913 239.68 42.0437 239.847 41.9485C240.013 41.8533 240.228 41.758 240.466 41.639C240.704 41.52 241.013 41.4248 241.322 41.3296C241.656 41.2344 242.013 41.1868 242.441 41.1868C242.751 41.1868 243.012 41.2106 243.227 41.282C243.441 41.3534 243.607 41.4486 243.75 41.5914C243.869 41.7342 243.964 41.9009 244.036 42.1151C244.083 42.3293 244.131 42.5673 244.131 42.8529V43.3765H243.274C242.489 43.3765 241.799 43.4479 241.203 43.567C240.608 43.686 240.109 43.8764 239.728 44.1144C239.323 44.3524 239.038 44.6856 238.823 45.0664C238.633 45.4473 238.514 45.8995 238.514 46.3993C238.514 46.8753 238.585 47.28 238.752 47.637C238.919 47.994 239.133 48.3034 239.418 48.5414C239.704 48.7795 240.037 48.9699 240.442 49.0889C240.823 49.2079 241.275 49.2793 241.727 49.2793C242.298 49.2793 242.822 49.1603 243.274 48.9461C243.726 48.7319 244.155 48.4224 244.512 48.0416V48.7557C244.512 48.8509 244.536 48.9223 244.607 48.9699C244.655 49.0175 244.75 49.0651 244.893 49.0889C245.036 49.1127 245.25 49.1127 245.535 49.1127C245.821 49.1127 246.011 49.0889 246.154 49.0889C246.297 49.0651 246.392 49.0175 246.464 48.9699C246.535 48.9223 246.559 48.8509 246.559 48.7557V42.8291ZM236.467 35.9267C236.277 35.7363 235.896 35.6411 235.348 35.6411C234.777 35.6411 234.396 35.7363 234.206 35.9267C234.015 36.1171 233.896 36.4741 233.896 36.974C233.896 37.45 233.992 37.7832 234.182 37.9736C234.372 38.164 234.753 38.2592 235.325 38.2592C235.872 38.2592 236.253 38.164 236.467 37.9736C236.681 37.7832 236.776 37.45 236.776 36.9502C236.776 36.4503 236.681 36.1171 236.467 35.9267ZM236.586 39.9491C236.586 39.8777 236.562 39.8301 236.538 39.7825C236.491 39.7349 236.443 39.6873 236.324 39.6635C236.229 39.6397 236.11 39.5921 235.943 39.5683C235.777 39.5445 235.586 39.5445 235.348 39.5445C235.11 39.5445 234.896 39.5445 234.753 39.5683C234.587 39.5921 234.468 39.6159 234.372 39.6635C234.277 39.6873 234.206 39.7349 234.158 39.7825C234.111 39.8301 234.111 39.8777 234.111 39.9491V48.7319C234.111 48.8033 234.134 48.8509 234.158 48.8985C234.206 48.9461 234.253 48.9937 234.372 49.0175C234.468 49.0413 234.587 49.0651 234.753 49.0889C234.92 49.1127 235.11 49.1127 235.348 49.1127C235.586 49.1127 235.801 49.1127 235.943 49.0889C236.11 49.0651 236.229 49.0413 236.324 49.0175C236.419 48.9937 236.491 48.9461 236.538 48.8985C236.586 48.8509 236.586 48.8033 236.586 48.7319V39.9491ZM232.278 46.8039C232.278 46.6611 232.254 46.5421 232.23 46.4707C232.207 46.3755 232.183 46.3279 232.135 46.2803C232.088 46.2565 232.04 46.2327 231.992 46.2327C231.897 46.2327 231.802 46.2803 231.683 46.3755C231.564 46.4707 231.397 46.5897 231.231 46.7087C231.04 46.8277 230.826 46.9468 230.588 47.042C230.35 47.1372 230.041 47.1848 229.707 47.1848C229.374 47.1848 229.089 47.1134 228.827 46.9944C228.565 46.8753 228.351 46.6849 228.184 46.4469C228.018 46.2089 227.898 45.8995 227.803 45.5425C227.708 45.1854 227.684 44.757 227.684 44.281C227.684 43.3289 227.851 42.5911 228.184 42.0913C228.517 41.5914 229.017 41.3534 229.66 41.3534C229.993 41.3534 230.279 41.401 230.517 41.4962C230.755 41.5914 230.945 41.6866 231.135 41.8056C231.302 41.9247 231.445 42.0199 231.588 42.1151C231.707 42.2103 231.826 42.2579 231.945 42.2579C232.04 42.2579 232.135 42.1865 232.207 42.0199C232.278 41.877 232.302 41.5914 232.302 41.2106C232.302 41.044 232.302 40.9012 232.278 40.7822C232.254 40.6632 232.254 40.568 232.23 40.4966C232.207 40.4252 232.183 40.3538 232.159 40.3062C232.135 40.2586 232.088 40.1872 232.016 40.1157C231.945 40.0443 231.826 39.9491 231.635 39.8539C231.469 39.7587 231.254 39.6635 231.04 39.5921C230.826 39.5207 230.588 39.4493 230.326 39.4017C230.064 39.3541 229.826 39.3303 229.541 39.3303C228.898 39.3303 228.303 39.4255 227.756 39.6397C227.208 39.8539 226.756 40.1634 226.351 40.568C225.947 40.9964 225.637 41.52 225.423 42.1627C225.209 42.8053 225.09 43.567 225.09 44.4476C225.09 45.2092 225.185 45.8995 225.352 46.4707C225.518 47.042 225.804 47.5656 226.161 47.9702C226.518 48.3748 226.946 48.6843 227.47 48.8985C227.994 49.1127 228.589 49.2079 229.279 49.2079C229.588 49.2079 229.874 49.1841 230.16 49.1365C230.445 49.0889 230.707 49.0175 230.945 48.9223C231.183 48.8271 231.397 48.7319 231.588 48.6367C231.778 48.5176 231.921 48.4462 231.992 48.351C232.064 48.2796 232.135 48.2082 232.159 48.1606C232.183 48.113 232.207 48.0416 232.23 47.9702C232.254 47.8988 232.254 47.8036 232.278 47.6846C232.278 47.5656 232.302 47.4228 232.302 47.2562C232.302 47.1134 232.278 46.9468 232.278 46.8039ZM220.972 45.5901C220.877 45.9471 220.758 46.2565 220.568 46.5183C220.401 46.7801 220.163 46.9706 219.877 47.1134C219.592 47.2562 219.282 47.3038 218.902 47.3038C218.497 47.3038 218.14 47.2324 217.878 47.0896C217.592 46.9468 217.378 46.7325 217.212 46.4707C217.045 46.2089 216.926 45.8757 216.855 45.5187C216.783 45.1616 216.736 44.757 216.736 44.3286C216.736 43.8526 216.783 43.4479 216.878 43.0671C216.974 42.7101 217.093 42.4007 217.283 42.1389C217.45 41.8771 217.688 41.6866 217.973 41.5438C218.259 41.401 218.568 41.3534 218.949 41.3534C219.378 41.3534 219.711 41.4248 219.973 41.5914C220.258 41.7342 220.472 41.9485 220.639 42.2341C220.806 42.4959 220.925 42.8291 220.996 43.1861C221.067 43.5431 221.091 43.9478 221.091 44.3762C221.091 44.8046 221.067 45.233 220.972 45.5901ZM223.376 42.1627C223.186 41.5438 222.9 41.044 222.543 40.6394C222.162 40.2348 221.686 39.9015 221.115 39.6873C220.544 39.4731 219.854 39.3541 219.068 39.3541C218.259 39.3541 217.545 39.4731 216.95 39.7111C216.355 39.9491 215.855 40.3062 215.45 40.7346C215.046 41.1868 214.736 41.7104 214.546 42.3293C214.332 42.9481 214.236 43.6384 214.236 44.3762C214.236 45.1616 214.332 45.8519 214.522 46.4469C214.713 47.042 214.998 47.5656 215.379 47.9702C215.76 48.3986 216.236 48.7081 216.831 48.9223C217.402 49.1365 218.092 49.2555 218.878 49.2555C219.687 49.2555 220.401 49.1365 220.996 48.8985C221.591 48.6605 222.115 48.3034 222.496 47.8512C222.9 47.399 223.186 46.8753 223.4 46.2565C223.59 45.6377 223.686 44.9474 223.686 44.2096C223.662 43.4479 223.567 42.7577 223.376 42.1627ZM212.689 45.2092C212.57 44.9236 212.404 44.6618 212.19 44.4476C211.975 44.2334 211.761 44.0668 211.499 43.924C211.238 43.7812 210.976 43.6622 210.714 43.5432C210.452 43.4241 210.19 43.3289 209.928 43.2337C209.667 43.1385 209.429 43.0433 209.238 42.9481C209.048 42.8529 208.881 42.7101 208.738 42.5911C208.619 42.4483 208.548 42.2817 208.548 42.0675C208.548 41.9247 208.572 41.8056 208.619 41.7104C208.667 41.5914 208.738 41.4962 208.857 41.401C208.953 41.3058 209.095 41.2582 209.262 41.2106C209.429 41.163 209.619 41.1392 209.857 41.1392C210.166 41.1392 210.452 41.163 210.69 41.2344C210.928 41.3058 211.142 41.3772 211.333 41.4486C211.523 41.52 211.666 41.5914 211.809 41.6628C211.928 41.7342 212.023 41.758 212.094 41.758C212.142 41.758 212.19 41.758 212.237 41.7342C212.285 41.7104 212.309 41.6628 212.332 41.5914C212.356 41.52 212.38 41.4248 212.38 41.3296C212.38 41.2106 212.404 41.0678 212.404 40.9012C212.404 40.7584 212.404 40.6156 212.38 40.5204C212.356 40.4252 212.356 40.33 212.356 40.2586C212.332 40.1872 212.332 40.1395 212.309 40.0919C212.285 40.0443 212.237 39.9967 212.166 39.9491C212.094 39.9015 211.999 39.8301 211.856 39.7825C211.714 39.7111 211.523 39.6397 211.333 39.5921C211.118 39.5445 210.881 39.4731 210.619 39.4493C210.357 39.4017 210.095 39.3779 209.809 39.3779C209.262 39.3779 208.762 39.4493 208.31 39.5921C207.858 39.7349 207.477 39.9253 207.167 40.1634C206.858 40.4252 206.62 40.7108 206.453 41.0678C206.287 41.4248 206.215 41.8056 206.215 42.2341C206.215 42.6387 206.287 42.9957 206.406 43.3051C206.525 43.5908 206.691 43.8526 206.882 44.0668C207.096 44.281 207.31 44.4476 207.572 44.5904C207.834 44.7332 208.096 44.8522 208.358 44.9712C208.619 45.0902 208.881 45.1854 209.143 45.2807C209.405 45.3759 209.619 45.4711 209.833 45.5663C210.024 45.6615 210.19 45.8043 210.309 45.9471C210.428 46.0899 210.5 46.2565 210.5 46.4469C210.5 46.6135 210.476 46.7801 210.404 46.8991C210.333 47.042 210.238 47.1372 210.119 47.2324C210 47.3276 209.833 47.3752 209.667 47.4228C209.5 47.4704 209.286 47.4942 209.072 47.4942C208.715 47.4942 208.405 47.4466 208.12 47.3752C207.834 47.28 207.596 47.2086 207.382 47.0896C207.167 46.9944 207.001 46.8991 206.858 46.8277C206.715 46.7325 206.62 46.7087 206.549 46.7087C206.501 46.7087 206.43 46.7087 206.406 46.7325C206.358 46.7563 206.334 46.8039 206.311 46.8753C206.287 46.9468 206.263 47.042 206.263 47.161C206.239 47.28 206.239 47.4228 206.239 47.6132C206.239 47.8988 206.263 48.113 206.311 48.2796C206.358 48.4224 206.406 48.5414 206.477 48.6129C206.549 48.6843 206.668 48.7557 206.81 48.8271C206.977 48.8985 207.167 48.9937 207.405 49.0651C207.643 49.1365 207.905 49.2079 208.215 49.2555C208.524 49.3031 208.834 49.3269 209.167 49.3269C209.714 49.3269 210.214 49.2555 210.69 49.1365C211.166 49.0175 211.571 48.8033 211.904 48.5652C212.237 48.3034 212.523 47.994 212.689 47.6132C212.88 47.2324 212.975 46.8039 212.975 46.2803C212.88 45.8519 212.832 45.4949 212.689 45.2092ZM204.621 45.2092C204.502 44.9236 204.335 44.6618 204.121 44.4476C203.907 44.2334 203.692 44.0668 203.431 43.924C203.169 43.7812 202.907 43.6622 202.645 43.5432C202.383 43.4241 202.122 43.3289 201.86 43.2337C201.598 43.1385 201.36 43.0433 201.17 42.9481C200.955 42.8529 200.789 42.7101 200.67 42.5911C200.551 42.4483 200.479 42.2817 200.479 42.0675C200.479 41.9247 200.503 41.8056 200.551 41.7104C200.598 41.5914 200.693 41.4962 200.789 41.401C200.884 41.3058 201.027 41.2582 201.193 41.2106C201.36 41.163 201.55 41.1392 201.765 41.1392C202.074 41.1392 202.36 41.163 202.598 41.2344C202.836 41.3058 203.074 41.3772 203.24 41.4486C203.431 41.52 203.573 41.5914 203.716 41.6628C203.835 41.7342 203.93 41.758 204.002 41.758C204.049 41.758 204.097 41.758 204.145 41.7342C204.192 41.7104 204.216 41.6628 204.24 41.5914C204.264 41.52 204.287 41.4248 204.287 41.3296C204.287 41.2106 204.311 41.0678 204.311 40.9012C204.311 40.7584 204.311 40.6156 204.287 40.5204C204.264 40.4252 204.264 40.33 204.264 40.2586C204.24 40.1872 204.24 40.1395 204.192 40.0919C204.168 40.0443 204.121 39.9967 204.049 39.9491C203.978 39.9015 203.883 39.8301 203.74 39.7825C203.597 39.7111 203.407 39.6397 203.216 39.5921C203.002 39.5445 202.764 39.4731 202.502 39.4493C202.241 39.4017 201.979 39.3779 201.693 39.3779C201.146 39.3779 200.646 39.4493 200.194 39.5921C199.741 39.7349 199.384 39.9253 199.075 40.1634C198.766 40.4252 198.528 40.7108 198.361 41.0678C198.194 41.4248 198.123 41.8056 198.123 42.2341C198.123 42.6387 198.194 42.9957 198.313 43.3051C198.432 43.5908 198.599 43.8526 198.789 44.0668C198.98 44.281 199.218 44.4476 199.48 44.5904C199.741 44.7332 200.003 44.8522 200.265 44.9712C200.527 45.0902 200.789 45.1854 201.051 45.2807C201.312 45.3759 201.527 45.4711 201.741 45.5663C201.955 45.6615 202.098 45.8043 202.217 45.9471C202.336 46.0899 202.407 46.2565 202.407 46.4469C202.407 46.6135 202.383 46.7801 202.312 46.8991C202.241 47.042 202.145 47.1372 202.026 47.2324C201.907 47.3276 201.741 47.3752 201.574 47.4228C201.408 47.4704 201.193 47.4942 200.979 47.4942C200.622 47.4942 200.313 47.4466 200.027 47.3752C199.741 47.28 199.503 47.2086 199.289 47.0896C199.075 46.9944 198.908 46.8991 198.766 46.8277C198.623 46.7325 198.528 46.7087 198.456 46.7087C198.385 46.7087 198.337 46.7087 198.313 46.7325C198.266 46.7563 198.242 46.8039 198.218 46.8753C198.194 46.9468 198.171 47.042 198.147 47.161C198.123 47.28 198.123 47.4228 198.123 47.6132C198.123 47.8988 198.147 48.113 198.171 48.2796C198.218 48.4224 198.266 48.5414 198.337 48.6129C198.409 48.6843 198.528 48.7557 198.694 48.8271C198.861 48.8985 199.051 48.9937 199.289 49.0651C199.527 49.1365 199.789 49.2079 200.098 49.2555C200.384 49.3031 200.717 49.3269 201.051 49.3269C201.598 49.3269 202.098 49.2555 202.574 49.1365C203.05 49.0175 203.454 48.8033 203.788 48.5652C204.121 48.3034 204.383 47.994 204.573 47.6132C204.764 47.2324 204.859 46.8039 204.859 46.2803C204.811 45.8519 204.74 45.4949 204.621 45.2092ZM192.91 44.162H189.293L191.102 38.7353L192.91 44.162ZM193.006 36.7836C192.958 36.6645 192.91 36.5693 192.863 36.4979C192.815 36.4265 192.72 36.3789 192.577 36.3313C192.434 36.2837 192.268 36.2599 192.03 36.2599C191.792 36.2599 191.482 36.2361 191.102 36.2361C190.768 36.2361 190.483 36.2361 190.292 36.2599C190.102 36.2599 189.935 36.2837 189.816 36.3313C189.697 36.3551 189.626 36.4265 189.554 36.4979C189.507 36.5693 189.459 36.6645 189.412 36.7597L185.461 48.0892C185.389 48.3272 185.342 48.5176 185.318 48.6367C185.294 48.7795 185.318 48.8747 185.389 48.9461C185.461 49.0175 185.58 49.0651 185.746 49.0889C185.913 49.1127 186.151 49.1127 186.46 49.1127C186.746 49.1127 186.96 49.1127 187.15 49.0889C187.317 49.0651 187.46 49.0413 187.555 49.0175C187.65 48.9937 187.722 48.9223 187.769 48.8747C187.817 48.8033 187.841 48.7319 187.865 48.6367L188.674 46.1375H193.482L194.339 48.7081C194.362 48.8033 194.41 48.8747 194.434 48.9223C194.481 48.9699 194.529 49.0175 194.648 49.0413C194.743 49.0651 194.886 49.0889 195.076 49.1127C195.267 49.1127 195.529 49.1365 195.862 49.1365C196.195 49.1365 196.433 49.1365 196.623 49.1127C196.814 49.0889 196.933 49.0413 197.004 48.9937C197.076 48.9223 197.099 48.8271 197.076 48.6843C197.052 48.5414 197.004 48.351 196.933 48.113L193.006 36.7836ZM179.344 43.3289C179.344 42.6863 179.296 42.1151 179.177 41.6628C179.058 41.2106 178.891 40.806 178.63 40.4728C178.368 40.1395 178.035 39.8539 177.63 39.6635C177.225 39.4731 176.702 39.3779 176.107 39.3779C175.631 39.3779 175.155 39.4731 174.726 39.6873C174.274 39.9015 173.845 40.211 173.417 40.6394V35.7363C173.417 35.6649 173.393 35.6173 173.346 35.5697C173.298 35.5221 173.25 35.4745 173.155 35.4269C173.06 35.3793 172.941 35.3555 172.774 35.3317C172.608 35.3079 172.417 35.3079 172.179 35.3079C171.941 35.3079 171.727 35.3079 171.584 35.3317C171.418 35.3555 171.299 35.3793 171.204 35.4269C171.108 35.4507 171.037 35.4983 171.013 35.5697C170.966 35.6173 170.942 35.6887 170.942 35.7363V48.7319C170.942 48.8033 170.966 48.8509 171.013 48.8985C171.061 48.9461 171.108 48.9937 171.204 49.0175C171.299 49.0413 171.418 49.0651 171.584 49.0889C171.751 49.1127 171.941 49.1127 172.179 49.1127C172.417 49.1127 172.632 49.1127 172.774 49.0889C172.941 49.0651 173.06 49.0413 173.155 49.0175C173.25 48.9937 173.322 48.9461 173.346 48.8985C173.393 48.8509 173.417 48.8033 173.417 48.7319V42.8767C173.774 42.4245 174.107 42.0913 174.417 41.8771C174.75 41.639 175.059 41.52 175.369 41.52C175.607 41.52 175.845 41.5676 176.035 41.6628C176.226 41.758 176.368 41.9009 176.487 42.0675C176.606 42.2341 176.702 42.4483 176.749 42.6863C176.821 42.9243 176.844 43.2575 176.844 43.686V48.7081C176.844 48.7795 176.868 48.8271 176.892 48.8747C176.94 48.9223 176.987 48.9699 177.082 48.9937C177.178 49.0175 177.297 49.0413 177.463 49.0651C177.63 49.0889 177.82 49.0889 178.058 49.0889C178.296 49.0889 178.487 49.0889 178.653 49.0651C178.82 49.0413 178.939 49.0175 179.034 48.9937C179.129 48.9699 179.201 48.9223 179.225 48.8747C179.272 48.8271 179.272 48.7795 179.272 48.7081V43.3289H179.344ZM169.109 46.8039C169.085 46.6611 169.085 46.5421 169.061 46.4707C169.038 46.3755 169.014 46.3279 168.966 46.2803C168.919 46.2565 168.871 46.2327 168.823 46.2327C168.728 46.2327 168.633 46.2803 168.514 46.3755C168.395 46.4707 168.228 46.5897 168.062 46.7087C167.871 46.8277 167.657 46.9468 167.419 47.042C167.181 47.1372 166.872 47.1848 166.538 47.1848C166.205 47.1848 165.92 47.1134 165.658 46.9944C165.396 46.8753 165.206 46.6849 165.039 46.4469C164.872 46.2089 164.753 45.8995 164.658 45.5425C164.563 45.1854 164.539 44.757 164.539 44.281C164.539 43.3289 164.706 42.5911 165.063 42.0913C165.396 41.5914 165.896 41.3534 166.538 41.3534C166.872 41.3534 167.157 41.401 167.395 41.4962C167.633 41.5914 167.824 41.6866 168.014 41.8056C168.181 41.9247 168.347 42.0199 168.466 42.1151C168.585 42.2103 168.704 42.2579 168.823 42.2579C168.919 42.2579 169.014 42.1865 169.085 42.0199C169.157 41.877 169.18 41.5914 169.18 41.2106C169.18 41.044 169.18 40.9012 169.157 40.7822C169.157 40.6632 169.133 40.568 169.109 40.4966C169.085 40.4252 169.061 40.3538 169.038 40.3062C169.014 40.2586 168.966 40.1872 168.895 40.1157C168.823 40.0443 168.704 39.9491 168.514 39.8539C168.347 39.7587 168.133 39.6635 167.919 39.5921C167.705 39.5207 167.467 39.4493 167.205 39.4017C166.943 39.3541 166.705 39.3303 166.443 39.3303C165.801 39.3303 165.206 39.4255 164.658 39.6397C164.111 39.8539 163.659 40.1634 163.254 40.568C162.849 40.9964 162.564 41.52 162.326 42.1627C162.111 42.8053 161.992 43.567 161.992 44.4476C161.992 45.2092 162.088 45.8995 162.254 46.4707C162.445 47.0658 162.706 47.5656 163.063 47.9702C163.42 48.3748 163.849 48.6843 164.396 48.8985C164.92 49.1127 165.515 49.2079 166.205 49.2079C166.515 49.2079 166.8 49.1841 167.086 49.1365C167.372 49.0889 167.633 49.0175 167.871 48.9223C168.109 48.8271 168.324 48.7319 168.514 48.6367C168.704 48.5176 168.847 48.4462 168.919 48.351C168.99 48.2796 169.038 48.2082 169.061 48.1606C169.085 48.113 169.109 48.0416 169.133 47.9702C169.157 47.8988 169.157 47.8036 169.18 47.6846C169.18 47.5656 169.204 47.4228 169.204 47.2562C169.133 47.1134 169.109 46.9468 169.109 46.8039ZM161.207 40.1872C161.207 40.0443 161.183 39.9491 161.183 39.8777C161.159 39.8063 161.159 39.7587 161.136 39.7111C161.112 39.6635 161.088 39.6397 161.064 39.5921C161.017 39.5683 160.969 39.5207 160.898 39.4969C160.826 39.4731 160.731 39.4493 160.612 39.4255C160.517 39.4017 160.398 39.3779 160.302 39.3779C160.207 39.3541 160.112 39.3541 160.017 39.3541C159.826 39.3541 159.66 39.3779 159.469 39.4255C159.279 39.4731 159.112 39.5683 158.922 39.6873C158.732 39.8063 158.541 39.9729 158.351 40.1872C158.137 40.4014 157.922 40.6632 157.708 40.9964V39.9015C157.708 39.8301 157.684 39.7825 157.661 39.7349C157.637 39.6873 157.565 39.6397 157.494 39.6159C157.423 39.5921 157.304 39.5683 157.161 39.5445C157.018 39.5207 156.851 39.5207 156.637 39.5207C156.423 39.5207 156.256 39.5207 156.137 39.5445C155.994 39.5683 155.899 39.5921 155.804 39.6159C155.709 39.6397 155.661 39.6873 155.637 39.7349C155.614 39.7825 155.59 39.8301 155.59 39.9015V48.7081C155.59 48.7795 155.614 48.8271 155.661 48.8747C155.709 48.9223 155.756 48.9699 155.852 48.9937C155.947 49.0175 156.066 49.0413 156.232 49.0651C156.399 49.0889 156.589 49.0889 156.827 49.0889C157.066 49.0889 157.28 49.0889 157.423 49.0651C157.589 49.0413 157.708 49.0175 157.803 48.9937C157.899 48.9699 157.97 48.9223 157.994 48.8747C158.041 48.8271 158.065 48.7795 158.065 48.7081V43.2099C158.256 42.9243 158.422 42.6625 158.589 42.4721C158.755 42.2817 158.898 42.1151 159.041 41.9961C159.184 41.877 159.327 41.7818 159.469 41.7342C159.612 41.6866 159.755 41.6628 159.874 41.6628C159.993 41.6628 160.112 41.6628 160.207 41.6866C160.303 41.7104 160.398 41.7342 160.469 41.758C160.541 41.7818 160.636 41.8056 160.683 41.8294C160.755 41.8532 160.802 41.8532 160.874 41.8532C160.945 41.8532 160.993 41.8294 161.04 41.8056C161.088 41.7818 161.112 41.7104 161.136 41.639C161.159 41.5438 161.183 41.4248 161.183 41.282C161.207 41.1392 161.207 40.925 161.207 40.687C161.207 40.4966 161.207 40.33 161.207 40.1872ZM150.639 46.4945C150.33 46.8277 150.044 47.0896 149.735 47.28C149.449 47.4704 149.116 47.5418 148.783 47.5418C148.378 47.5418 148.045 47.4466 147.807 47.2324C147.569 47.0182 147.45 46.7325 147.45 46.3755C147.45 46.1613 147.497 45.9709 147.569 45.8043C147.64 45.6377 147.783 45.4949 147.95 45.3759C148.116 45.2568 148.354 45.1616 148.64 45.114C148.925 45.0664 149.259 45.0188 149.663 45.0188H150.615V46.4945H150.639ZM153.067 42.8291C153.067 42.2341 152.995 41.7104 152.853 41.2582C152.71 40.806 152.472 40.449 152.162 40.1872C151.853 39.9015 151.448 39.6873 150.949 39.5683C150.449 39.4255 149.877 39.3779 149.163 39.3779C148.783 39.3779 148.402 39.4017 148.045 39.4731C147.688 39.5445 147.331 39.6159 147.021 39.7111C146.712 39.8063 146.45 39.9253 146.212 40.0205C145.974 40.1395 145.807 40.2348 145.736 40.33C145.641 40.4252 145.569 40.5204 145.546 40.6394C145.522 40.7584 145.498 40.925 145.498 41.1154C145.498 41.2582 145.498 41.401 145.522 41.52C145.546 41.639 145.569 41.758 145.593 41.8294C145.617 41.9009 145.665 41.9723 145.736 42.0199C145.784 42.0675 145.855 42.0913 145.926 42.0913C146.022 42.0913 146.164 42.0437 146.331 41.9485C146.498 41.8533 146.712 41.758 146.95 41.639C147.188 41.52 147.497 41.4248 147.807 41.3296C148.14 41.2344 148.497 41.1868 148.925 41.1868C149.235 41.1868 149.497 41.2106 149.711 41.282C149.925 41.3534 150.092 41.4486 150.235 41.5914C150.354 41.7342 150.449 41.9009 150.52 42.1151C150.568 42.3293 150.615 42.5673 150.615 42.8529V43.3765H149.758C148.973 43.3765 148.283 43.4479 147.688 43.567C147.093 43.686 146.593 43.8764 146.212 44.1144C145.807 44.3524 145.522 44.6856 145.308 45.0664C145.117 45.4473 144.998 45.8995 144.998 46.3993C144.998 46.8753 145.07 47.28 145.236 47.637C145.403 47.994 145.617 48.3034 145.903 48.5414C146.188 48.7795 146.521 48.9699 146.926 49.0889C147.331 49.2079 147.759 49.2793 148.211 49.2793C148.783 49.2793 149.282 49.1603 149.758 48.9461C150.211 48.7319 150.639 48.4224 150.996 48.0416V48.7557C150.996 48.8509 151.02 48.9223 151.068 48.9699C151.115 49.0175 151.21 49.0651 151.353 49.0889C151.496 49.1127 151.71 49.1127 151.996 49.1127C152.281 49.1127 152.496 49.0889 152.615 49.0889C152.757 49.0651 152.853 49.0175 152.924 48.9699C152.995 48.9223 153.019 48.8509 153.019 48.7557V42.8291H153.067ZM137.382 43.3527C137.382 43.0433 137.429 42.7577 137.525 42.4721C137.596 42.1865 137.715 41.9723 137.882 41.758C138.024 41.5676 138.239 41.401 138.453 41.282C138.691 41.163 138.953 41.0916 139.286 41.0916C139.905 41.0916 140.381 41.282 140.666 41.6866C140.976 42.0913 141.095 42.6387 141.095 43.3289H137.382V43.3527ZM143.523 43.686C143.523 43.0671 143.451 42.4959 143.285 41.9723C143.118 41.4486 142.88 40.9964 142.547 40.5918C142.213 40.211 141.785 39.9015 141.261 39.6873C140.738 39.4731 140.119 39.3541 139.381 39.3541C138.691 39.3541 138.048 39.4731 137.501 39.7111C136.953 39.9491 136.477 40.2824 136.073 40.7108C135.692 41.1392 135.382 41.6866 135.192 42.3055C134.978 42.9243 134.883 43.6384 134.883 44.4238C134.883 45.2569 134.978 45.9709 135.168 46.5659C135.359 47.1848 135.668 47.6846 136.049 48.0892C136.453 48.4938 136.93 48.7795 137.525 48.9937C138.12 49.1841 138.81 49.2793 139.595 49.2793C140.024 49.2793 140.428 49.2555 140.809 49.1841C141.19 49.1365 141.523 49.0651 141.833 48.9937C142.118 48.9223 142.38 48.8509 142.57 48.7557C142.761 48.6843 142.88 48.6128 142.927 48.5652C142.975 48.5176 142.999 48.47 143.023 48.4224C143.046 48.3748 143.07 48.3034 143.094 48.232C143.094 48.1606 143.118 48.0654 143.118 47.9702C143.118 47.875 143.118 47.7322 143.118 47.5894C143.118 47.4228 143.118 47.28 143.094 47.1848C143.094 47.0896 143.07 46.9944 143.046 46.923C143.023 46.8753 142.999 46.8277 142.951 46.8039C142.904 46.7801 142.856 46.7801 142.808 46.7801C142.713 46.7801 142.57 46.8039 142.428 46.8753C142.261 46.9468 142.071 47.0182 141.833 47.0896C141.595 47.161 141.309 47.2324 140.976 47.3038C140.643 47.3752 140.262 47.399 139.833 47.399C139.405 47.399 139.048 47.3514 138.738 47.2324C138.429 47.1134 138.191 46.9468 137.977 46.7325C137.786 46.5183 137.644 46.2565 137.548 45.9471C137.453 45.6377 137.406 45.3045 137.406 44.9236H142.761C142.999 44.9236 143.189 44.8522 143.332 44.7094C143.475 44.5666 143.523 44.3524 143.523 44.043V43.686ZM133.312 45.2092C133.193 44.9236 133.026 44.6618 132.812 44.4476C132.598 44.2334 132.383 44.0668 132.122 43.924C131.86 43.7812 131.598 43.6622 131.336 43.5432C131.074 43.4241 130.813 43.3289 130.551 43.2337C130.289 43.1385 130.051 43.0433 129.86 42.9481C129.646 42.8529 129.503 42.7101 129.361 42.5911C129.242 42.4483 129.17 42.2817 129.17 42.0675C129.17 41.9247 129.194 41.8056 129.242 41.7104C129.289 41.5914 129.384 41.4962 129.48 41.401C129.599 41.3058 129.718 41.2582 129.884 41.2106C130.051 41.163 130.241 41.1392 130.456 41.1392C130.765 41.1392 131.051 41.163 131.312 41.2344C131.55 41.3058 131.765 41.3772 131.955 41.4486C132.145 41.52 132.288 41.5914 132.431 41.6628C132.55 41.7342 132.645 41.758 132.717 41.758C132.764 41.758 132.812 41.758 132.859 41.7342C132.907 41.7104 132.931 41.6628 132.955 41.5914C132.978 41.52 133.002 41.4248 133.002 41.3296C133.002 41.2106 133.026 41.0678 133.026 40.9012C133.026 40.7584 133.026 40.6156 133.002 40.5204C133.002 40.4252 132.978 40.33 132.978 40.2586C132.955 40.1872 132.955 40.1395 132.907 40.0919C132.883 40.0443 132.836 39.9967 132.764 39.9491C132.693 39.9015 132.598 39.8301 132.455 39.7825C132.312 39.7111 132.122 39.6397 131.931 39.5921C131.717 39.5445 131.479 39.4731 131.217 39.4493C130.955 39.4017 130.694 39.3779 130.408 39.3779C129.86 39.3779 129.361 39.4493 128.908 39.5921C128.456 39.7349 128.075 39.9253 127.766 40.1634C127.457 40.4252 127.219 40.7108 127.052 41.0678C126.885 41.4248 126.814 41.8056 126.814 42.2341C126.814 42.6387 126.885 42.9957 127.004 43.3051C127.123 43.5908 127.29 43.8526 127.48 44.0668C127.671 44.281 127.909 44.4476 128.171 44.5904C128.432 44.7332 128.694 44.8522 128.956 44.9712C129.218 45.0902 129.48 45.1854 129.741 45.2807C130.003 45.3759 130.218 45.4711 130.432 45.5663C130.622 45.6615 130.789 45.8043 130.908 45.9471C131.027 46.0899 131.098 46.2565 131.098 46.4469C131.098 46.6135 131.074 46.7801 131.003 46.8991C130.932 47.042 130.836 47.1372 130.717 47.2324C130.598 47.3276 130.432 47.3752 130.265 47.4228C130.099 47.4704 129.884 47.4942 129.67 47.4942C129.313 47.4942 129.004 47.4466 128.718 47.3752C128.432 47.28 128.194 47.2086 127.98 47.0896C127.766 46.9944 127.599 46.8991 127.457 46.8277C127.314 46.7325 127.219 46.7087 127.123 46.7087C127.076 46.7087 127.004 46.7087 126.981 46.7325C126.933 46.7563 126.909 46.8039 126.885 46.8753C126.862 46.9468 126.838 47.042 126.814 47.161C126.814 47.28 126.79 47.4228 126.79 47.6132C126.79 47.8988 126.814 48.113 126.862 48.2796C126.909 48.4224 126.957 48.5414 127.028 48.6129C127.1 48.6843 127.219 48.7557 127.385 48.8271C127.552 48.8985 127.742 48.9937 127.98 49.0651C128.218 49.1365 128.48 49.2079 128.789 49.2555C129.099 49.3031 129.408 49.3269 129.741 49.3269C130.289 49.3269 130.789 49.2555 131.265 49.1365C131.741 49.0175 132.145 48.8033 132.479 48.5652C132.812 48.3034 133.097 47.994 133.264 47.6132C133.455 47.2324 133.55 46.8039 133.55 46.2803C133.502 45.8519 133.455 45.4949 133.312 45.2092ZM119.126 43.3527C119.15 43.0433 119.197 42.7577 119.269 42.4721C119.34 42.1865 119.459 41.9723 119.626 41.758C119.793 41.5676 119.983 41.401 120.221 41.282C120.459 41.163 120.721 41.0916 121.054 41.0916C121.673 41.0916 122.149 41.282 122.434 41.6866C122.744 42.0913 122.863 42.6387 122.863 43.3289H119.126V43.3527ZM125.267 43.686C125.267 43.0671 125.195 42.4959 125.029 41.9723C124.862 41.4486 124.624 40.9964 124.291 40.5918C123.958 40.211 123.529 39.9015 123.006 39.6873C122.482 39.4731 121.839 39.3541 121.125 39.3541C120.435 39.3541 119.793 39.4731 119.245 39.7111C118.698 39.9491 118.222 40.2824 117.817 40.7108C117.436 41.1392 117.127 41.6866 116.936 42.3055C116.722 42.9243 116.627 43.6384 116.627 44.4238C116.627 45.2569 116.722 45.9709 116.913 46.5659C117.103 47.1848 117.389 47.6846 117.793 48.0892C118.198 48.4938 118.674 48.7795 119.269 48.9937C119.864 49.1841 120.554 49.2793 121.316 49.2793C121.744 49.2793 122.149 49.2555 122.53 49.1841C122.91 49.1365 123.244 49.0651 123.553 48.9937C123.839 48.9223 124.101 48.8509 124.291 48.7557C124.481 48.6843 124.6 48.6128 124.648 48.5652C124.696 48.5176 124.719 48.47 124.743 48.4224C124.767 48.3748 124.791 48.3034 124.815 48.232C124.838 48.1606 124.838 48.0654 124.838 47.9702C124.838 47.875 124.838 47.7322 124.838 47.5894C124.838 47.4228 124.838 47.28 124.815 47.1848C124.815 47.0896 124.791 46.9944 124.767 46.923C124.743 46.8753 124.696 46.8277 124.672 46.8039C124.624 46.7801 124.577 46.7801 124.529 46.7801C124.434 46.7801 124.291 46.8039 124.148 46.8753C123.982 46.9468 123.791 47.0182 123.553 47.0896C123.315 47.161 123.029 47.2324 122.696 47.3038C122.363 47.3752 121.982 47.399 121.554 47.399C121.125 47.399 120.768 47.3514 120.459 47.2324C120.15 47.1134 119.912 46.9468 119.697 46.7325C119.507 46.5183 119.364 46.2565 119.269 45.9471C119.174 45.6377 119.126 45.3045 119.126 44.9236H124.481C124.719 44.9236 124.91 44.8522 125.053 44.7094C125.195 44.5666 125.243 44.3524 125.243 44.043V43.686H125.267ZM112.176 40.806C112.081 41.0202 111.938 41.2344 111.748 41.3772C111.557 41.5438 111.343 41.6628 111.057 41.758C110.772 41.8533 110.462 41.9009 110.082 41.9009H108.749V38.283H109.915C110.201 38.283 110.439 38.283 110.605 38.3068C110.772 38.3306 110.915 38.3544 111.057 38.3782C111.486 38.4973 111.795 38.6877 111.986 38.9971C112.176 39.2827 112.271 39.6397 112.271 40.0681C112.319 40.33 112.271 40.5918 112.176 40.806ZM115.603 48.47C115.58 48.351 115.508 48.1844 115.413 47.9226L114.342 45.3997C114.223 45.0902 114.08 44.8284 113.961 44.5904C113.818 44.3524 113.699 44.1382 113.533 43.9478C113.39 43.7574 113.223 43.5908 113.057 43.4717C112.89 43.3289 112.7 43.2337 112.509 43.1385C112.914 43.0195 113.247 42.8529 113.557 42.6387C113.866 42.4245 114.128 42.1865 114.342 41.9247C114.556 41.639 114.723 41.3296 114.818 40.9726C114.937 40.6156 114.985 40.2348 114.985 39.8063C114.985 39.3065 114.913 38.8543 114.747 38.4496C114.604 38.0688 114.39 37.7118 114.08 37.4262C113.795 37.1406 113.438 36.9026 113.033 36.7359C112.628 36.5693 112.152 36.4265 111.652 36.3551C111.462 36.3313 111.272 36.3313 111.057 36.3075C110.843 36.2837 110.558 36.2837 110.224 36.2837H106.916C106.702 36.2837 106.511 36.3551 106.369 36.4741C106.226 36.5931 106.154 36.8074 106.154 37.093V48.7081C106.154 48.7795 106.178 48.8271 106.226 48.8985C106.273 48.9461 106.345 48.9937 106.44 49.0175C106.535 49.0413 106.678 49.0889 106.845 49.0889C107.011 49.1127 107.225 49.1127 107.463 49.1127C107.725 49.1127 107.939 49.1127 108.106 49.0889C108.273 49.0651 108.392 49.0413 108.511 49.0175C108.606 48.9937 108.677 48.9461 108.725 48.8985C108.772 48.8509 108.796 48.7795 108.796 48.7081V43.8288H109.606C109.891 43.8288 110.129 43.8764 110.343 43.9478C110.558 44.043 110.748 44.162 110.915 44.3286C111.081 44.4952 111.224 44.7094 111.367 44.9474C111.51 45.2093 111.629 45.4949 111.771 45.8043L112.914 48.6605C112.938 48.7319 112.985 48.8033 113.009 48.8509C113.057 48.8985 113.128 48.9461 113.223 48.9937C113.319 49.0175 113.438 49.0651 113.604 49.0651C113.771 49.0651 113.985 49.0889 114.271 49.0889C114.604 49.0889 114.866 49.0889 115.056 49.0651C115.246 49.0413 115.389 49.0413 115.484 48.9937C115.58 48.9699 115.651 48.9223 115.675 48.8747C115.699 48.8271 115.722 48.7557 115.722 48.6843C115.651 48.6605 115.651 48.5891 115.603 48.47Z" fill="#ffffff"/>
<path d="M248.059 14.3149C248.059 14.2435 248.035 14.1959 248.011 14.1245C247.964 14.0769 247.916 14.0293 247.797 13.9817C247.702 13.9579 247.583 13.9103 247.416 13.9103C247.25 13.8865 247.059 13.8865 246.821 13.8865C246.583 13.8865 246.369 13.8865 246.226 13.9103C246.06 13.9341 245.941 13.9579 245.845 13.9817C245.75 14.0055 245.679 14.0531 245.631 14.1245C245.584 14.1721 245.584 14.2435 245.584 14.3149V27.3105C245.584 27.3819 245.607 27.4295 245.631 27.4771C245.679 27.5247 245.726 27.5723 245.845 27.5961C245.941 27.6199 246.06 27.6437 246.226 27.6675C246.393 27.6913 246.583 27.6913 246.821 27.6913C247.059 27.6913 247.273 27.6913 247.416 27.6675C247.583 27.6437 247.702 27.6199 247.797 27.5961C247.892 27.5723 247.964 27.5247 248.011 27.4771C248.059 27.4295 248.059 27.3819 248.059 27.3105V14.3149ZM240.633 25.0731C240.323 25.4064 240.038 25.6682 239.728 25.8586C239.443 26.049 239.11 26.1204 238.776 26.1204C238.372 26.1204 238.039 26.0252 237.801 25.811C237.562 25.5968 237.443 25.3112 237.443 24.9303C237.443 24.7161 237.491 24.5257 237.562 24.3591C237.634 24.1925 237.777 24.0497 237.943 23.9307C238.11 23.8117 238.348 23.7165 238.634 23.6689C238.919 23.6213 239.252 23.5736 239.657 23.5736H240.609V25.0731H240.633ZM243.084 21.4077C243.084 20.8127 243.013 20.2891 242.87 19.8368C242.727 19.3846 242.489 19.0276 242.18 18.7658C241.871 18.4801 241.466 18.2659 240.966 18.1469C240.466 18.0279 239.895 17.9565 239.205 17.9565C238.824 17.9565 238.443 17.9803 238.062 18.0517C237.705 18.1231 237.348 18.1945 237.039 18.2897C236.729 18.3849 236.468 18.5039 236.23 18.623C235.992 18.742 235.825 18.8372 235.754 18.9324C235.658 19.0276 235.587 19.1466 235.563 19.2656C235.539 19.3846 235.516 19.5512 235.516 19.7416C235.516 19.8844 235.516 20.0272 235.539 20.1462C235.563 20.2653 235.587 20.3843 235.635 20.4557C235.658 20.5509 235.706 20.5985 235.777 20.6461C235.825 20.6937 235.896 20.7175 235.968 20.7175C236.063 20.7175 236.206 20.6699 236.372 20.5747C236.539 20.4795 236.753 20.3843 236.991 20.2653C237.229 20.1462 237.539 20.051 237.848 19.9558C238.181 19.8606 238.538 19.813 238.967 19.813C239.276 19.813 239.538 19.8368 239.752 19.9082C239.966 19.9796 240.133 20.0748 240.276 20.2176C240.395 20.3605 240.49 20.5271 240.561 20.7413C240.609 20.9555 240.657 21.1935 240.657 21.4791V22.0028H239.8C239.014 22.0028 238.324 22.0742 237.729 22.1932C237.134 22.3122 236.634 22.5026 236.253 22.7406C235.849 22.9786 235.563 23.3118 235.349 23.6689C235.159 24.0497 235.04 24.5019 235.04 25.0017C235.04 25.4778 235.111 25.8824 235.278 26.2394C235.444 26.5964 235.658 26.882 235.944 27.1439C236.23 27.3819 236.563 27.5723 236.967 27.6913C237.348 27.8103 237.8 27.8817 238.253 27.8817C238.824 27.8817 239.324 27.7627 239.8 27.5485C240.276 27.3343 240.68 27.0249 241.037 26.644V27.3343C241.037 27.4295 241.061 27.5009 241.109 27.5485C241.157 27.5961 241.252 27.6437 241.395 27.6675C241.537 27.6913 241.752 27.6913 242.037 27.6913C242.323 27.6913 242.537 27.6675 242.656 27.6675C242.799 27.6437 242.894 27.5961 242.965 27.5485C243.037 27.5009 243.061 27.4295 243.061 27.3343V21.4077H243.084ZM233.135 21.6695C233.135 21.1697 233.088 20.6699 232.969 20.2176C232.874 19.7654 232.683 19.3608 232.445 19.0276C232.207 18.6944 231.874 18.4087 231.469 18.2183C231.065 18.0279 230.565 17.9327 229.994 17.9327C229.732 17.9327 229.494 17.9565 229.232 18.0279C228.994 18.0993 228.732 18.1945 228.494 18.3135C228.256 18.4325 227.994 18.5992 227.732 18.8134C227.471 19.0276 227.209 19.2656 226.947 19.5512C226.828 19.3132 226.709 19.099 226.542 18.8848C226.376 18.6944 226.185 18.5278 225.947 18.3849C225.709 18.2421 225.471 18.1469 225.162 18.0517C224.876 17.9803 224.543 17.9327 224.186 17.9327C223.662 17.9327 223.163 18.0755 222.663 18.3373C222.163 18.5992 221.687 19.0038 221.211 19.5274V18.5039C221.211 18.4325 221.187 18.3849 221.163 18.3373C221.14 18.2897 221.068 18.2421 220.997 18.2183C220.925 18.1945 220.806 18.1707 220.687 18.1469C220.544 18.1231 220.378 18.1231 220.164 18.1231C219.949 18.1231 219.783 18.1231 219.664 18.1469C219.521 18.1707 219.426 18.1945 219.331 18.2183C219.235 18.2421 219.188 18.2897 219.14 18.3373C219.116 18.3849 219.093 18.4325 219.093 18.5039V27.3105C219.093 27.3819 219.116 27.4295 219.164 27.4771C219.212 27.5247 219.259 27.5723 219.354 27.5961C219.45 27.6199 219.569 27.6437 219.735 27.6675C219.902 27.6913 220.092 27.6913 220.33 27.6913C220.568 27.6913 220.782 27.6913 220.925 27.6675C221.092 27.6437 221.211 27.6199 221.306 27.5961C221.401 27.5723 221.473 27.5247 221.497 27.4771C221.544 27.4295 221.568 27.3819 221.568 27.3105V21.4553C221.925 21.0269 222.234 20.6699 222.544 20.4557C222.853 20.2415 223.163 20.0986 223.448 20.0986C223.686 20.0986 223.9 20.1462 224.067 20.2415C224.234 20.3367 224.4 20.4795 224.496 20.6461C224.615 20.8127 224.686 21.0269 224.757 21.2649C224.805 21.5029 224.829 21.7885 224.829 22.0742V27.3105C224.829 27.3819 224.853 27.4295 224.9 27.4771C224.948 27.5247 224.995 27.5723 225.091 27.5961C225.186 27.6199 225.305 27.6437 225.471 27.6675C225.638 27.6913 225.828 27.6913 226.066 27.6913C226.304 27.6913 226.495 27.6913 226.661 27.6675C226.828 27.6437 226.947 27.6199 227.042 27.5961C227.137 27.5723 227.209 27.5247 227.256 27.4771C227.304 27.4295 227.304 27.3819 227.304 27.3105V21.4553C227.661 21.0269 227.994 20.6699 228.28 20.4557C228.566 20.2415 228.875 20.0986 229.184 20.0986C229.422 20.0986 229.637 20.1462 229.803 20.2415C229.97 20.3367 230.113 20.4795 230.232 20.6461C230.351 20.8127 230.422 21.0269 230.493 21.2649C230.541 21.5029 230.589 21.7885 230.589 22.0742V27.3105C230.589 27.3819 230.612 27.4295 230.636 27.4771C230.66 27.5247 230.731 27.5723 230.827 27.5961C230.922 27.6199 231.041 27.6437 231.208 27.6675C231.374 27.6913 231.565 27.6913 231.826 27.6913C232.064 27.6913 232.279 27.6913 232.421 27.6675C232.588 27.6437 232.707 27.6199 232.802 27.5961C232.897 27.5723 232.969 27.5247 232.993 27.4771C233.04 27.4295 233.04 27.3819 233.04 27.3105V21.6695H233.135ZM216.522 14.5053C216.332 14.3149 215.951 14.2197 215.403 14.2197C214.832 14.2197 214.451 14.3149 214.261 14.5053C214.07 14.6957 213.951 15.0527 213.951 15.5526C213.951 16.0286 214.047 16.3618 214.237 16.5522C214.428 16.7426 214.808 16.8379 215.38 16.8379C215.927 16.8379 216.308 16.7426 216.522 16.5522C216.736 16.3618 216.831 16.0048 216.831 15.505C216.831 15.0289 216.736 14.6957 216.522 14.5053ZM216.641 18.5278C216.641 18.4563 216.617 18.4087 216.593 18.3611C216.546 18.3135 216.498 18.2659 216.379 18.2421C216.284 18.1945 216.165 18.1707 215.998 18.1469C215.832 18.1231 215.641 18.1231 215.403 18.1231C215.165 18.1231 214.951 18.1231 214.808 18.1469C214.642 18.1707 214.523 18.1945 214.428 18.2421C214.332 18.2659 214.261 18.3135 214.237 18.3611C214.189 18.4087 214.19 18.4801 214.19 18.5278V27.3105C214.19 27.3819 214.213 27.4295 214.237 27.4771C214.285 27.5247 214.332 27.5723 214.428 27.5961C214.523 27.6199 214.642 27.6437 214.808 27.6675C214.975 27.6913 215.165 27.6913 215.403 27.6913C215.641 27.6913 215.856 27.6913 215.998 27.6675C216.165 27.6437 216.284 27.6199 216.379 27.5961C216.474 27.5723 216.546 27.5247 216.593 27.4771C216.641 27.4295 216.641 27.3819 216.641 27.3105V18.5278ZM211.714 21.8599C211.714 21.2173 211.667 20.6699 211.548 20.2176C211.429 19.7654 211.262 19.3608 211 19.0276C210.738 18.6944 210.405 18.4087 210 18.2183C209.596 18.0279 209.072 17.9327 208.477 17.9327C207.93 17.9327 207.406 18.0755 206.906 18.3373C206.406 18.5992 205.907 19.0038 205.431 19.5274V18.5039C205.431 18.4325 205.407 18.3849 205.383 18.3373C205.359 18.2897 205.288 18.2421 205.216 18.2183C205.145 18.1945 205.026 18.1707 204.907 18.1469C204.764 18.1231 204.598 18.1231 204.383 18.1231C204.169 18.1231 204.003 18.1231 203.883 18.1469C203.741 18.1707 203.645 18.1945 203.55 18.2183C203.455 18.2421 203.407 18.2897 203.384 18.3373C203.36 18.3849 203.336 18.4325 203.336 18.5039V27.3105C203.336 27.3819 203.36 27.4295 203.384 27.4771C203.431 27.5247 203.479 27.5723 203.598 27.5961C203.693 27.6199 203.812 27.6437 203.979 27.6675C204.145 27.6913 204.336 27.6913 204.574 27.6913C204.812 27.6913 205.026 27.6913 205.169 27.6675C205.335 27.6437 205.454 27.6199 205.55 27.5961C205.645 27.5723 205.716 27.5247 205.764 27.4771C205.811 27.4295 205.811 27.3819 205.811 27.3105V21.4553C206.168 21.0269 206.502 20.6699 206.811 20.4557C207.144 20.2176 207.454 20.0986 207.763 20.0986C208.001 20.0986 208.239 20.1462 208.43 20.2415C208.62 20.3367 208.763 20.4795 208.882 20.6461C209.001 20.8127 209.096 21.0269 209.144 21.2649C209.215 21.5029 209.239 21.8361 209.239 22.2646V27.2867C209.239 27.3581 209.263 27.4057 209.286 27.4533C209.334 27.5009 209.382 27.5485 209.477 27.5723C209.572 27.5961 209.691 27.6199 209.858 27.6437C210.024 27.6675 210.215 27.6675 210.476 27.6675C210.714 27.6675 210.905 27.6675 211.072 27.6437C211.238 27.6199 211.357 27.5961 211.452 27.5723C211.548 27.5485 211.619 27.5009 211.643 27.4533C211.69 27.4057 211.69 27.3581 211.69 27.2867V21.8599H211.714ZM197.6 22.7406H193.982L195.791 17.3139L197.6 22.7406ZM197.695 15.3622C197.648 15.2432 197.6 15.1479 197.552 15.0765C197.505 15.0051 197.41 14.9575 197.267 14.9099C197.148 14.8623 196.957 14.8385 196.719 14.8385C196.481 14.8147 196.172 14.8147 195.791 14.8147C195.458 14.8147 195.172 14.8147 194.982 14.8385C194.768 14.8385 194.625 14.8623 194.506 14.9099C194.387 14.9337 194.315 15.0051 194.244 15.0765C194.196 15.1479 194.149 15.2432 194.101 15.3384L190.15 26.6678C190.079 26.9058 190.031 27.0725 190.007 27.2153C189.983 27.3581 190.007 27.4533 190.079 27.5247C190.15 27.5961 190.269 27.6437 190.436 27.6675C190.602 27.6913 190.84 27.6913 191.15 27.6913C191.435 27.6913 191.65 27.6913 191.84 27.6675C192.007 27.6675 192.149 27.6199 192.245 27.5961C192.34 27.5723 192.411 27.5009 192.459 27.4533C192.506 27.3819 192.53 27.3105 192.554 27.2153L193.363 24.7161H198.171L199.028 27.2867C199.052 27.3819 199.099 27.4533 199.123 27.5009C199.171 27.5485 199.218 27.5961 199.337 27.6199C199.433 27.6437 199.575 27.6675 199.766 27.6675C199.956 27.6675 200.218 27.6913 200.551 27.6913C200.885 27.6913 201.123 27.6913 201.313 27.6675C201.503 27.6437 201.622 27.5961 201.694 27.5485C201.765 27.4771 201.789 27.3819 201.765 27.2391C201.741 27.0963 201.694 26.9058 201.622 26.6678L197.695 15.3622ZM184.009 21.8599C184.009 21.2173 183.962 20.6699 183.843 20.2176C183.724 19.7654 183.557 19.3608 183.295 19.0276C183.033 18.6944 182.7 18.4087 182.296 18.2183C181.891 18.0279 181.391 17.9327 180.772 17.9327C180.225 17.9327 179.701 18.0755 179.201 18.3373C178.702 18.5992 178.202 19.0038 177.726 19.5274V18.5039C177.726 18.4325 177.702 18.3849 177.678 18.3373C177.654 18.2897 177.583 18.2421 177.512 18.2183C177.44 18.1945 177.321 18.1707 177.202 18.1469C177.059 18.1231 176.893 18.1231 176.678 18.1231C176.464 18.1231 176.298 18.1231 176.179 18.1469C176.036 18.1707 175.941 18.1945 175.845 18.2183C175.75 18.2421 175.703 18.2897 175.679 18.3373C175.655 18.3849 175.631 18.4325 175.631 18.5039V27.3105C175.631 27.3819 175.655 27.4295 175.679 27.4771C175.726 27.5247 175.774 27.5723 175.893 27.5961C175.988 27.6199 176.107 27.6437 176.274 27.6675C176.44 27.6913 176.631 27.6913 176.869 27.6913C177.107 27.6913 177.321 27.6913 177.464 27.6675C177.631 27.6437 177.75 27.6199 177.845 27.5961C177.94 27.5723 178.011 27.5247 178.035 27.4771C178.083 27.4295 178.107 27.3819 178.107 27.3105V21.4553C178.464 21.0269 178.797 20.6699 179.106 20.4557C179.439 20.2176 179.749 20.0986 180.058 20.0986C180.32 20.0986 180.534 20.1462 180.725 20.2415C180.915 20.3367 181.058 20.4795 181.177 20.6461C181.296 20.8127 181.391 21.0269 181.439 21.2649C181.51 21.5029 181.534 21.8361 181.534 22.2646V27.2867C181.534 27.3581 181.558 27.4057 181.582 27.4533C181.629 27.5009 181.677 27.5485 181.772 27.5723C181.867 27.5961 181.986 27.6199 182.153 27.6437C182.319 27.6675 182.51 27.6675 182.772 27.6675C183.01 27.6675 183.2 27.6675 183.367 27.6437C183.533 27.6199 183.652 27.5961 183.748 27.5723C183.843 27.5485 183.914 27.5009 183.938 27.4533C183.986 27.4057 183.986 27.3581 183.986 27.2867V21.8599H184.009ZM170.681 25.0731C170.371 25.4064 170.085 25.6682 169.776 25.8586C169.49 26.049 169.157 26.1204 168.824 26.1204C168.419 26.1204 168.086 26.0252 167.848 25.811C167.61 25.5968 167.491 25.3112 167.491 24.9303C167.491 24.7161 167.539 24.5257 167.61 24.3591C167.682 24.1925 167.824 24.0497 167.991 23.9307C168.158 23.8117 168.396 23.7165 168.681 23.6689C168.967 23.5975 169.3 23.5736 169.705 23.5736H170.657V25.0731H170.681ZM173.132 21.4077C173.132 20.8127 173.061 20.2891 172.918 19.8368C172.775 19.3846 172.537 19.0276 172.228 18.7658C171.918 18.4801 171.514 18.2659 171.014 18.1469C170.514 18.0041 169.919 17.9565 169.252 17.9565C168.872 17.9565 168.491 17.9803 168.11 18.0517C167.753 18.1231 167.396 18.1945 167.087 18.2897C166.777 18.3849 166.515 18.5039 166.277 18.623C166.039 18.742 165.873 18.8372 165.801 18.9324C165.706 19.0276 165.635 19.1466 165.611 19.2656C165.587 19.3846 165.563 19.5512 165.563 19.7416C165.563 19.8844 165.563 20.0272 165.587 20.1462C165.611 20.2653 165.635 20.3843 165.682 20.4557C165.706 20.5509 165.754 20.5985 165.825 20.6461C165.873 20.6937 165.944 20.7175 166.015 20.7175C166.111 20.7175 166.253 20.6699 166.42 20.5747C166.587 20.4795 166.801 20.3843 167.039 20.2653C167.301 20.1462 167.586 20.051 167.896 19.9558C168.229 19.8606 168.586 19.813 169.014 19.813C169.324 19.813 169.586 19.8368 169.8 19.9082C170.014 19.9796 170.181 20.0748 170.324 20.2176C170.443 20.3605 170.538 20.5271 170.609 20.7413C170.657 20.9555 170.704 21.1935 170.704 21.4791V22.0028H169.847C169.062 22.0028 168.372 22.0742 167.777 22.1932C167.182 22.3122 166.682 22.5026 166.301 22.7406C165.896 22.9786 165.611 23.3118 165.397 23.6689C165.206 24.0497 165.087 24.5019 165.087 25.0017C165.087 25.4778 165.159 25.8824 165.325 26.2394C165.492 26.5964 165.706 26.882 165.992 27.1439C166.277 27.3819 166.61 27.5723 167.015 27.6913C167.42 27.8103 167.848 27.8817 168.3 27.8817C168.872 27.8817 169.371 27.7627 169.847 27.5485C170.3 27.3343 170.728 27.0249 171.085 26.644V27.3343C171.085 27.4295 171.109 27.5009 171.18 27.5485C171.228 27.5961 171.323 27.6437 171.466 27.6675C171.609 27.6913 171.823 27.6913 172.109 27.6913C172.394 27.6913 172.585 27.6675 172.727 27.6675C172.87 27.6437 172.965 27.5961 173.037 27.5485C173.108 27.5009 173.132 27.4295 173.132 27.3343V21.4077ZM157.447 21.9314C157.447 21.6219 157.518 21.3363 157.59 21.0507C157.661 20.7651 157.78 20.5271 157.947 20.3367C158.113 20.1462 158.304 19.9796 158.542 19.8606C158.78 19.7416 159.042 19.694 159.375 19.694C159.994 19.694 160.47 19.8844 160.755 20.2891C161.065 20.6937 161.184 21.2411 161.184 21.9314H157.447ZM163.564 22.2646C163.564 21.6457 163.493 21.0745 163.326 20.5509C163.159 20.0272 162.921 19.575 162.588 19.1704C162.255 18.7896 161.826 18.4801 161.303 18.2659C160.779 18.0517 160.137 17.9327 159.422 17.9327C158.732 17.9327 158.09 18.0517 157.542 18.2659C156.995 18.5039 156.519 18.8372 156.114 19.2656C155.733 19.694 155.424 20.2415 155.233 20.8603C155.019 21.4791 154.924 22.1932 154.924 22.9786C154.924 23.8117 155.019 24.5257 155.21 25.1207C155.4 25.7396 155.709 26.2394 156.09 26.644C156.495 27.0487 156.971 27.3581 157.566 27.5485C158.161 27.7389 158.851 27.8341 159.637 27.8341C160.065 27.8341 160.47 27.8103 160.851 27.7389C161.231 27.6913 161.565 27.6199 161.874 27.5485C162.16 27.4771 162.421 27.4057 162.612 27.3105C162.802 27.2391 162.921 27.1677 162.969 27.1201C163.016 27.0725 163.04 27.0249 163.064 26.9772C163.088 26.9296 163.112 26.8582 163.135 26.7868C163.135 26.7154 163.159 26.6202 163.159 26.525C163.159 26.4298 163.159 26.287 163.159 26.1442C163.159 25.9776 163.159 25.8348 163.135 25.7396C163.135 25.6206 163.112 25.5492 163.088 25.4778C163.064 25.4302 163.04 25.3826 162.993 25.3588C162.945 25.335 162.897 25.335 162.85 25.335C162.755 25.335 162.612 25.3588 162.469 25.4302C162.302 25.5016 162.112 25.573 161.874 25.6444C161.636 25.7158 161.35 25.7872 161.017 25.8586C160.684 25.93 160.303 25.9538 159.875 25.9538C159.446 25.9538 159.089 25.9062 158.78 25.7872C158.47 25.6682 158.232 25.5016 158.018 25.2873C157.804 25.0731 157.685 24.8113 157.59 24.5019C157.495 24.1925 157.447 23.8593 157.447 23.4784H162.802C163.04 23.4784 163.231 23.407 163.373 23.2642C163.516 23.1214 163.564 22.9072 163.564 22.5978V22.2646ZM150.759 23.9545C150.687 24.2877 150.592 24.5971 150.426 24.8589C150.283 25.1207 150.092 25.335 149.854 25.5016C149.616 25.6682 149.354 25.7396 149.021 25.7396C148.688 25.7396 148.355 25.6206 148.022 25.3826C147.712 25.1445 147.379 24.7875 147.022 24.3591V21.4553C147.212 21.1935 147.403 20.9793 147.593 20.7889C147.76 20.6223 147.95 20.4557 148.117 20.3605C148.283 20.2415 148.45 20.17 148.617 20.1224C148.783 20.0748 148.95 20.051 149.116 20.051C149.45 20.051 149.711 20.1224 149.949 20.2891C150.164 20.4557 150.354 20.6699 150.497 20.9317C150.64 21.1935 150.735 21.5029 150.783 21.8599C150.83 22.217 150.878 22.574 150.878 22.931C150.854 23.288 150.83 23.6213 150.759 23.9545ZM153.258 20.9079C153.115 20.3129 152.925 19.813 152.639 19.3608C152.353 18.9086 151.973 18.5754 151.52 18.3135C151.068 18.0517 150.521 17.9327 149.878 17.9327C149.569 17.9327 149.283 17.9565 148.997 18.0279C148.736 18.0993 148.45 18.1945 148.212 18.3373C147.974 18.4801 147.712 18.6468 147.45 18.8372C147.212 19.0276 146.951 19.2656 146.689 19.5274V18.5039C146.689 18.4325 146.665 18.3849 146.641 18.3373C146.617 18.2897 146.546 18.2421 146.474 18.2183C146.403 18.1945 146.284 18.1707 146.141 18.1469C145.998 18.1231 145.832 18.1231 145.641 18.1231C145.427 18.1231 145.261 18.1231 145.142 18.1469C144.999 18.1707 144.904 18.1945 144.808 18.2183C144.737 18.2421 144.666 18.2897 144.642 18.3373C144.618 18.3849 144.594 18.4325 144.594 18.5039V30.8093C144.594 30.8807 144.618 30.9283 144.642 30.9997C144.689 31.0473 144.761 31.0949 144.856 31.1425C144.951 31.1663 145.07 31.2139 145.237 31.2139C145.403 31.2377 145.594 31.2377 145.832 31.2377C146.07 31.2377 146.284 31.2377 146.427 31.2139C146.594 31.1901 146.713 31.1663 146.808 31.1425C146.903 31.0949 146.974 31.0711 146.998 30.9997C147.046 30.9521 147.046 30.8807 147.046 30.8093V26.6678C147.26 26.882 147.474 27.0487 147.665 27.1915C147.855 27.3343 148.069 27.4771 148.26 27.5723C148.45 27.6675 148.664 27.7389 148.878 27.7865C149.093 27.8341 149.331 27.8579 149.592 27.8579C150.211 27.8579 150.759 27.7389 151.235 27.5009C151.711 27.2629 152.115 26.9296 152.449 26.4774C152.782 26.049 153.02 25.5016 153.186 24.8827C153.353 24.2639 153.448 23.5498 153.448 22.7644C153.448 22.1218 153.377 21.4791 153.258 20.9079ZM139.929 24.1687C139.834 24.5257 139.715 24.8351 139.524 25.0969C139.358 25.3588 139.12 25.5492 138.834 25.692C138.549 25.8348 138.239 25.9062 137.858 25.9062C137.454 25.9062 137.097 25.8348 136.835 25.692C136.549 25.5492 136.335 25.335 136.168 25.0731C136.002 24.8113 135.883 24.4781 135.811 24.1211C135.74 23.7641 135.716 23.3594 135.716 22.931C135.716 22.455 135.764 22.0504 135.859 21.6695C135.954 21.3125 136.073 20.9793 136.264 20.7413C136.43 20.4795 136.668 20.2891 136.954 20.1462C137.24 20.0034 137.549 19.932 137.93 19.932C138.334 19.932 138.691 20.0034 138.953 20.17C139.215 20.3129 139.453 20.5271 139.62 20.8127C139.786 21.0745 139.905 21.4077 139.977 21.7647C140.048 22.1218 140.072 22.5264 140.072 22.9786C140.048 23.3832 140.001 23.8117 139.929 24.1687ZM142.333 20.7413C142.143 20.1224 141.881 19.6226 141.5 19.218C141.119 18.8134 140.643 18.4801 140.072 18.2659C139.501 18.0517 138.81 17.9327 138.025 17.9327C137.216 17.9327 136.502 18.0517 135.907 18.2897C135.312 18.5278 134.812 18.8848 134.407 19.3132C134.003 19.7654 133.717 20.2891 133.503 20.9079C133.312 21.5267 133.193 22.217 133.193 22.9548C133.193 23.7403 133.289 24.4305 133.479 25.0255C133.669 25.6206 133.955 26.1442 134.336 26.5488C134.717 26.9534 135.193 27.2867 135.788 27.5009C136.359 27.7151 137.049 27.8341 137.835 27.8341C138.644 27.8341 139.358 27.7151 139.953 27.4771C140.572 27.2391 141.072 26.882 141.452 26.4298C141.857 25.9776 142.143 25.454 142.357 24.8351C142.547 24.2163 142.642 23.526 142.642 22.7882C142.619 22.0266 142.523 21.3363 142.333 20.7413ZM132.408 18.7658C132.408 18.623 132.384 18.5277 132.384 18.4563C132.36 18.3849 132.36 18.3373 132.336 18.2897C132.313 18.2421 132.289 18.2183 132.265 18.1945C132.241 18.1707 132.17 18.1231 132.098 18.0993C132.027 18.0755 131.932 18.0517 131.813 18.0279C131.694 18.0041 131.599 17.9803 131.503 17.9803C131.408 17.9803 131.313 17.9565 131.218 17.9565C131.027 17.9565 130.837 17.9803 130.67 18.0279C130.48 18.0755 130.313 18.1707 130.123 18.2897C129.933 18.4087 129.742 18.5754 129.552 18.7896C129.337 19.0038 129.123 19.2656 128.909 19.5988V18.5039C128.909 18.4325 128.885 18.3849 128.861 18.3373C128.838 18.2897 128.766 18.2421 128.695 18.2183C128.623 18.1945 128.504 18.1707 128.385 18.1469C128.243 18.1231 128.076 18.1231 127.862 18.1231C127.648 18.1231 127.481 18.1231 127.362 18.1469C127.219 18.1707 127.124 18.1945 127.029 18.2183C126.934 18.2421 126.886 18.2897 126.862 18.3373C126.838 18.3849 126.815 18.4325 126.815 18.5039V27.3105C126.815 27.3819 126.838 27.4295 126.862 27.4771C126.91 27.5247 126.981 27.5723 127.053 27.5961C127.148 27.6199 127.267 27.6437 127.433 27.6675C127.6 27.6913 127.79 27.6913 128.028 27.6913C128.266 27.6913 128.481 27.6913 128.623 27.6675C128.79 27.6437 128.909 27.6199 129.004 27.5961C129.099 27.5723 129.171 27.5247 129.195 27.4771C129.242 27.4295 129.266 27.3819 129.266 27.3105V21.8123C129.456 21.5267 129.623 21.2887 129.79 21.0745C129.956 20.8841 130.099 20.7175 130.242 20.5985C130.385 20.4795 130.528 20.3843 130.67 20.3367C130.813 20.2891 130.956 20.2415 131.075 20.2415C131.194 20.2415 131.313 20.2415 131.408 20.2653C131.503 20.2891 131.599 20.3129 131.67 20.3367C131.765 20.3605 131.837 20.3843 131.884 20.4081C131.956 20.4319 132.003 20.4319 132.051 20.4319C132.122 20.4319 132.17 20.4081 132.217 20.3843C132.265 20.3605 132.289 20.2891 132.313 20.1938C132.336 20.0986 132.36 20.0034 132.384 19.8368C132.408 19.694 132.408 19.5036 132.408 19.2656C132.408 19.0276 132.408 18.9086 132.408 18.7658ZM124.244 18.5039C124.244 18.4325 124.22 18.3849 124.173 18.3373C124.125 18.2897 124.077 18.2421 123.982 18.2183C123.887 18.1945 123.768 18.1707 123.601 18.1469C123.435 18.1231 123.244 18.1231 123.006 18.1231C122.768 18.1231 122.554 18.1231 122.411 18.1469C122.245 18.1707 122.126 18.1945 122.03 18.2183C121.935 18.2421 121.864 18.2897 121.84 18.3373C121.816 18.3849 121.792 18.4325 121.792 18.5039V24.3591C121.435 24.8113 121.078 25.1445 120.769 25.3588C120.46 25.5968 120.126 25.692 119.817 25.692C119.555 25.692 119.341 25.6444 119.15 25.5492C118.96 25.454 118.817 25.3112 118.674 25.1445C118.555 24.9779 118.46 24.7637 118.413 24.5257C118.341 24.2877 118.317 23.9307 118.317 23.4784V18.5039C118.317 18.4325 118.294 18.3849 118.246 18.3373C118.198 18.2897 118.151 18.2421 118.056 18.2183C117.96 18.1945 117.841 18.1707 117.675 18.1469C117.508 18.1231 117.318 18.1231 117.08 18.1231C116.842 18.1231 116.651 18.1231 116.485 18.1469C116.318 18.1707 116.199 18.1945 116.104 18.2183C116.009 18.2421 115.937 18.2897 115.913 18.3373C115.89 18.3849 115.866 18.4325 115.866 18.5039V23.9069C115.866 24.5733 115.913 25.1445 116.033 25.5968C116.128 26.049 116.318 26.4536 116.58 26.7868C116.842 27.1201 117.175 27.4057 117.58 27.5961C117.984 27.7865 118.508 27.8817 119.103 27.8817C119.65 27.8817 120.174 27.7389 120.674 27.4771C121.174 27.2153 121.673 26.8106 122.149 26.287V27.3105C122.149 27.3819 122.173 27.4295 122.197 27.4771C122.221 27.5247 122.292 27.5723 122.364 27.5961C122.435 27.6199 122.554 27.6437 122.697 27.6675C122.84 27.6913 123.006 27.6913 123.221 27.6913C123.435 27.6913 123.601 27.6913 123.72 27.6675C123.863 27.6437 123.958 27.6199 124.054 27.5961C124.125 27.5723 124.196 27.5247 124.22 27.4771C124.244 27.4295 124.268 27.3819 124.268 27.3105V18.5039H124.244ZM113.724 26.1442C113.7 26.0252 113.676 25.9062 113.652 25.8348C113.629 25.7634 113.581 25.692 113.533 25.6682C113.486 25.6206 113.438 25.6206 113.367 25.6206H108.749V22.0266H112.605C112.676 22.0266 112.724 22.0028 112.772 21.979C112.819 21.9552 112.867 21.8837 112.891 21.8123C112.915 21.7409 112.938 21.6457 112.962 21.5029C112.986 21.3839 112.986 21.2173 112.986 21.0269C112.986 20.8365 112.986 20.6937 112.962 20.5509C112.938 20.4319 112.915 20.3129 112.891 20.2415C112.867 20.17 112.819 20.0986 112.772 20.0748C112.724 20.0272 112.676 20.0272 112.605 20.0272H108.749V16.9093H113.319C113.391 16.9093 113.438 16.8855 113.486 16.8617C113.533 16.8378 113.581 16.7664 113.605 16.695C113.629 16.6236 113.652 16.5046 113.676 16.3856C113.7 16.2666 113.7 16.1 113.7 15.9096C113.7 15.7192 113.7 15.5526 113.676 15.4098C113.652 15.2908 113.629 15.1718 113.605 15.1003C113.581 15.0051 113.533 14.9575 113.486 14.9337C113.438 14.9099 113.391 14.8861 113.319 14.8861H106.94C106.726 14.8861 106.536 14.9575 106.393 15.0765C106.25 15.1956 106.179 15.4098 106.179 15.6954V26.8344C106.179 27.1201 106.25 27.3343 106.393 27.4533C106.536 27.5723 106.726 27.6437 106.94 27.6437H113.367C113.414 27.6437 113.486 27.6199 113.533 27.5961C113.581 27.5723 113.629 27.5009 113.652 27.4295C113.676 27.3581 113.7 27.2391 113.724 27.1201C113.748 27.0011 113.748 26.8344 113.748 26.644C113.748 26.4298 113.748 26.287 113.724 26.1442Z" fill="#ffffff"/>
</svg>
